<svg width="24" height="24" viewBox="0 0 24 24" fill="none" xmlns="http://www.w3.org/2000/svg">
<g filter="url(#filter0_d_12122_382)">
<path fill-rule="evenodd" clip-rule="evenodd" d="M8 0L4 0V4H8V8H4V12H8V16H12V12H16V16H20V12H16V8H20V4H16V0L12 0V4H8V0ZM12 8H16V4H12V8ZM12 8H8V12H12V8Z" fill="white"/>
<path d="M11.5 12.5V15.5H8.5V12.5H11.5ZM12.5 11.5V8.5H15.5V11.5H12.5ZM19.5 7.5H16.5V4.5H19.5V7.5ZM15.5 0.5V3.5H12.5V0.5H15.5ZM8.5 4.5H11.5V7.5H8.5V4.5ZM4.5 8.5H7.5V11.5H4.5V8.5ZM16.5 15.5V12.5H19.5V15.5H16.5ZM4.5 0.5H7.5V3.5H4.5V0.5Z" stroke="black"/>
</g>
<defs>
<filter id="filter0_d_12122_382" x="0" y="0" width="24" height="24" filterUnits="userSpaceOnUse" color-interpolation-filters="sRGB">
<feFlood flood-opacity="0" result="BackgroundImageFix"/>
<feColorMatrix in="SourceAlpha" type="matrix" values="0 0 0 0 0 0 0 0 0 0 0 0 0 0 0 0 0 0 127 0" result="hardAlpha"/>
<feOffset dy="4"/>
<feGaussianBlur stdDeviation="2"/>
<feComposite in2="hardAlpha" operator="out"/>
<feColorMatrix type="matrix" values="0 0 0 0 0 0 0 0 0 0 0 0 0 0 0 0 0 0 0.25 0"/>
<feBlend mode="normal" in2="BackgroundImageFix" result="effect1_dropShadow_12122_382"/>
<feBlend mode="normal" in="SourceGraphic" in2="effect1_dropShadow_12122_382" result="shape"/>
</filter>
</defs>
</svg>
